<?xml version="1.0" encoding="utf-8"?>
<!-- Generator: Adobe Illustrator 24.2.0, SVG Export Plug-In . SVG Version: 6.00 Build 0)  -->
<svg version="1.1" id="Layer_1" xmlns="http://www.w3.org/2000/svg" xmlns:xlink="http://www.w3.org/1999/xlink" x="0px" y="0px"
	 viewBox="0 0 205.2 108" style="enable-background:new 0 0 205.2 108;" xml:space="preserve">
<style type="text/css">
	.st0{fill:#871F41;}
	.st1{fill:#E77724;}
</style>
<g>
	<path class="st0" d="M108.92,16.7c-6.48,0-12.45,3.55-15.53,9.26l-3.8,7.02l-0.44,0.82l-0.43,0.79v0L77.25,55.8L58.51,20.78h8.33
		l6.71,12.47l3.52,6.54l3.63-6.48l7.03-12.54h6.08c1.47-1.63,3.18-3.01,5.07-4.08H85.35l-8.2,14.62L69.28,16.7H51.7l25.52,47.71
		l14.21-26.26l2.36-4.35l0.44-0.82l2.73-5.05c0.15-0.28,0.31-0.54,0.47-0.81c1.82-2.88,4.64-4.95,7.87-5.84
		c0.88-0.24,1.79-0.4,2.72-0.47c0.31-0.02,0.62-0.03,0.93-0.03h37.2l-3.76,7h-17.21l-1.15,2.16l-15.92,29.92h-8.44l13.97-25.94
		l3.24-6.02h-16.76C99.15,29.43,97.78,32,97.78,32h12.25L92.83,63.95h17.73l17.08-32.09h17.2l8.14-15.16H108.92z"/>
</g>
<g>
	<path class="st1" d="M130.61,77.79v-2.81h12.27v2.81h-4.67v13.1h-2.92v-13.1H130.61z"/>
	<path class="st1" d="M155.53,90.89h-10.21v-15.9h10.21v2.78h-7.3v3.71h5.92v2.78h-5.92v3.84h7.3V90.89z"/>
	<path class="st1" d="M160.36,82.94c0,0.72,0.14,1.39,0.42,2.02c0.28,0.63,0.65,1.18,1.13,1.65c0.48,0.47,1.03,0.84,1.66,1.11
		c0.63,0.27,1.31,0.41,2.02,0.41c0.55,0,1.08-0.08,1.57-0.25c0.49-0.17,0.95-0.39,1.37-0.68c0.16-0.1,0.34-0.18,0.53-0.24
		c0.19-0.06,0.39-0.09,0.59-0.09c0.33,0,0.62,0.05,0.85,0.16c0.23,0.11,0.45,0.26,0.65,0.45l0.68,0.68
		c-0.41,0.44-0.86,0.84-1.34,1.2c-0.48,0.36-0.99,0.66-1.51,0.91c-0.53,0.25-1.08,0.44-1.64,0.58s-1.14,0.2-1.74,0.2
		c-1.12,0-2.18-0.21-3.17-0.64c-0.99-0.43-1.85-1-2.59-1.74c-0.74-0.73-1.32-1.59-1.75-2.57c-0.43-0.98-0.64-2.04-0.64-3.16
		c0-0.75,0.1-1.47,0.29-2.16c0.19-0.69,0.47-1.34,0.82-1.94c0.36-0.6,0.78-1.15,1.28-1.64c0.5-0.5,1.04-0.92,1.65-1.27
		c0.6-0.35,1.25-0.62,1.95-0.82c0.7-0.19,1.42-0.29,2.16-0.29c0.59,0,1.17,0.07,1.74,0.2s1.11,0.33,1.64,0.58
		c0.53,0.25,1.03,0.55,1.51,0.91c0.48,0.36,0.93,0.75,1.34,1.2l-0.68,0.68c-0.19,0.19-0.41,0.35-0.66,0.46
		c-0.25,0.11-0.53,0.17-0.84,0.17c-0.41,0-0.78-0.12-1.12-0.36c-0.43-0.29-0.89-0.51-1.38-0.68c-0.49-0.16-1.01-0.24-1.56-0.24
		c-0.72,0-1.39,0.14-2.02,0.41c-0.63,0.27-1.19,0.65-1.66,1.11c-0.48,0.47-0.85,1.02-1.13,1.65
		C160.5,81.55,160.36,82.22,160.36,82.94z"/>
	<path class="st1" d="M188.66,90.89h-2.92V84.3h-7.81v6.59h-2.91v-15.9h2.91v6.52h7.81v-6.52h2.92V90.89z"/>
	<path class="st1" d="M24.51,86.07c0,0,1.43-3.29,2.15-4.93c0.71-1.63,1.43-3.28,2.16-4.93c0.16-0.38,0.42-0.67,0.76-0.89
		c0.34-0.22,0.72-0.33,1.14-0.33h1.81l-6.93,15.9h-2.64l-6.93-15.9h1.8c0.2,0,0.4,0.03,0.59,0.09c0.2,0.06,0.38,0.14,0.55,0.26
		c0.17,0.11,0.32,0.24,0.46,0.39c0.13,0.15,0.24,0.31,0.31,0.49l4.29,9.84l0.25,0.58L24.51,86.07z"/>
	<path class="st1" d="M37.88,90.89h-2.92v-15.9h2.92V90.89z"/>
	<path class="st1" d="M70.55,82.38v6.67c-0.4,0.4-0.83,0.73-1.3,0.99c-0.47,0.26-0.95,0.46-1.46,0.62
		c-0.51,0.15-1.04,0.26-1.59,0.31c-0.55,0.06-1.11,0.08-1.67,0.08c-1.12,0-2.18-0.21-3.16-0.64c-0.98-0.43-1.85-1-2.58-1.74
		c-0.74-0.73-1.32-1.59-1.75-2.57c-0.42-0.98-0.64-2.04-0.64-3.16c0-0.75,0.1-1.47,0.29-2.16c0.19-0.69,0.47-1.34,0.82-1.94
		c0.35-0.6,0.78-1.15,1.28-1.64c0.49-0.5,1.04-0.92,1.65-1.27c0.6-0.35,1.25-0.62,1.94-0.82c0.69-0.19,1.41-0.29,2.16-0.29
		c0.59,0,1.17,0.07,1.74,0.2c0.57,0.13,1.12,0.33,1.64,0.58c0.52,0.25,1.03,0.55,1.51,0.91c0.48,0.36,0.93,0.75,1.34,1.2l-0.67,0.68
		c-0.21,0.21-0.43,0.37-0.67,0.48c-0.24,0.1-0.52,0.16-0.83,0.16c-0.41,0-0.79-0.12-1.13-0.36c-0.42-0.29-0.88-0.51-1.37-0.68
		c-0.49-0.16-1.02-0.24-1.57-0.24c-0.71,0-1.38,0.14-2.02,0.41c-0.64,0.27-1.19,0.65-1.66,1.11c-0.47,0.47-0.85,1.02-1.13,1.65
		c-0.28,0.63-0.42,1.3-0.42,2.02c0,0.73,0.14,1.41,0.43,2.05c0.29,0.63,0.68,1.18,1.16,1.65c0.49,0.47,1.06,0.84,1.7,1.1
		c0.65,0.27,1.33,0.4,2.04,0.4c0.35-0.01,0.7-0.04,1.05-0.09c0.3-0.04,0.63-0.11,0.98-0.21c0.35-0.1,0.67-0.23,0.95-0.41v-2.24
		c-0.31-0.01-0.62-0.01-0.92-0.02c-0.3,0-0.57-0.06-0.8-0.17c-0.23-0.11-0.42-0.3-0.56-0.56c-0.14-0.26-0.21-0.65-0.21-1.17v-0.89
		H70.55z"/>
	<path class="st1" d="M78.16,90.89h-2.92v-15.9h2.92V90.89z"/>
	<path class="st1" d="M85.87,79v11.89h-2.91v-15.9h2.56c0.36,0,0.67,0.05,0.94,0.16c0.27,0.1,0.48,0.26,0.64,0.48
		c1.11,1.58,7.07,10,7.07,10V74.99h2.91v15.9h-2.7L85.87,79z"/>
	<path class="st1" d="M104.8,90.89h-2.92v-15.9h2.92V90.89z"/>
	<path class="st1" d="M116.81,74.99h-2.63l-6.94,15.9h1.81c0.2,0,0.4-0.03,0.59-0.09c0.2-0.06,0.38-0.14,0.55-0.25
		c0.17-0.11,0.32-0.23,0.45-0.38s0.24-0.31,0.31-0.49l0.93-2.15h0l1.68-3.87h0.01l1.91-4.44l2.32,5.39h-1.32
		c-0.99,0-1.88,0.59-2.28,1.49l-0.62,1.43h5.5l0.94,2.15c0.17,0.38,0.42,0.67,0.76,0.89c0.34,0.21,0.72,0.32,1.13,0.32h1.81
		L116.81,74.99z"/>
	<path class="st1" d="M45.58,90.89h-2.91V74.99h5.97c0.77,0,1.47,0.14,2.09,0.43c0.62,0.29,1.16,0.67,1.6,1.15
		c0.44,0.48,0.79,1.02,1.03,1.62c0.24,0.61,0.37,1.23,0.37,1.87c0,0.47-0.06,0.92-0.19,1.36c-0.13,0.44-0.31,0.86-0.56,1.25
		s-0.54,0.75-0.9,1.08c-0.36,0.33-0.76,0.61-1.22,0.84c0.78,1.06,1.55,2.11,2.32,3.14c0.77,1.04,1.54,2.08,2.33,3.13h-2.27
		c-0.15,0-0.34-0.03-0.54-0.1c-0.21-0.07-0.42-0.17-0.65-0.32c-0.23-0.14-0.46-0.33-0.7-0.56c-0.24-0.23-0.48-0.51-0.7-0.84
		l-2.89-3.9h-2.17V90.89z M48.73,82.25c0.28,0,0.55-0.06,0.8-0.18c0.26-0.12,0.48-0.28,0.67-0.48c0.19-0.2,0.34-0.43,0.45-0.69
		c0.11-0.26,0.17-0.53,0.17-0.82c0-0.29-0.06-0.56-0.17-0.83c-0.11-0.26-0.26-0.49-0.45-0.69c-0.19-0.2-0.41-0.36-0.67-0.48
		c-0.25-0.12-0.52-0.18-0.8-0.18h-3.15v4.34H48.73z"/>
	<g>
		<path class="st1" d="M191.93,88.35c0.74,0,1.35,0.6,1.35,1.35c0,0.75-0.6,1.35-1.35,1.35c-0.75,0-1.35-0.6-1.35-1.35
			C190.58,88.96,191.18,88.35,191.93,88.35z M191.93,90.92c0.68,0,1.22-0.55,1.22-1.22c0-0.67-0.55-1.22-1.22-1.22
			c-0.68,0-1.22,0.55-1.22,1.22C190.7,90.38,191.25,90.92,191.93,90.92z M192.13,89.83l0.36,0.51c0.01,0.03,0,0.04-0.04,0.04h-0.13
			c-0.03,0-0.04-0.01-0.06-0.03l-0.35-0.5h-0.26v0.5c0,0.02-0.01,0.03-0.04,0.03h-0.13c-0.03,0-0.04-0.01-0.04-0.03v-1.29
			c0-0.03,0.01-0.03,0.04-0.03h0.47c0.23,0,0.47,0.09,0.47,0.41C192.43,89.66,192.28,89.79,192.13,89.83z M191.95,89.67
			c0.19,0,0.28-0.09,0.28-0.24c0-0.17-0.1-0.23-0.29-0.23h-0.29v0.48H191.95z"/>
	</g>
</g>
</svg>
