<?xml version="1.0" encoding="utf-8"?>
<!-- Generator: Adobe Illustrator 24.2.0, SVG Export Plug-In . SVG Version: 6.00 Build 0)  -->
<svg version="1.1" id="Layer_1" xmlns="http://www.w3.org/2000/svg" xmlns:xlink="http://www.w3.org/1999/xlink" x="0px" y="0px"
	 viewBox="0 0 209.83 63.5" style="enable-background:new 0 0 209.83 63.5;" xml:space="preserve">
<style type="text/css">
	.st0{fill:#75787B;}
</style>
<path class="st0" d="M55.21,15.07c-4.56,0-8.75,2.5-10.91,6.5l-2.67,4.93l-0.31,0.57l-0.3,0.56v0l-8.06,14.9l-13.16-24.6h5.85
	l4.71,8.76l2.47,4.6l2.55-4.56l4.94-8.81h4.27c1.03-1.15,2.24-2.11,3.56-2.87h-9.51l-5.76,10.27l-5.53-10.27H15.01L32.94,48.6
	l9.98-18.45l1.66-3.06l0.31-0.57l1.92-3.55c0.1-0.19,0.22-0.38,0.33-0.57c1.28-2.02,3.26-3.48,5.53-4.11
	c0.62-0.17,1.26-0.28,1.91-0.33c0.22-0.01,0.44-0.02,0.66-0.02h26.14l-2.64,4.92H66.64l-0.81,1.52L54.64,45.4h-5.93l9.81-18.23
	l2.28-4.23H49.02c-0.67,1.06-1.64,2.87-1.64,2.87H56L43.9,48.27h12.46l12-22.55h12.09l5.72-10.65H55.21z"/>
<g>
	<path class="st0" d="M102,25.45c0,0,1.34-3.08,2.01-4.62c0.67-1.53,1.34-3.07,2.02-4.62c0.15-0.35,0.39-0.63,0.71-0.84
		c0.32-0.2,0.68-0.31,1.07-0.31h1.69l-6.5,14.9h-2.47l-6.5-14.9h1.68c0.19,0,0.37,0.03,0.56,0.08c0.18,0.06,0.36,0.14,0.51,0.24
		c0.16,0.1,0.3,0.23,0.43,0.36c0.12,0.14,0.22,0.29,0.29,0.46l4.02,9.22l0.24,0.54L102,25.45z"/>
	<path class="st0" d="M114.53,29.97h-2.73v-14.9h2.73V29.97z"/>
	<path class="st0" d="M145.15,22v6.25c-0.37,0.37-0.78,0.68-1.22,0.93c-0.44,0.24-0.89,0.43-1.37,0.58
		c-0.48,0.14-0.98,0.24-1.49,0.29c-0.52,0.05-1.04,0.08-1.56,0.08c-1.05,0-2.04-0.2-2.96-0.6c-0.92-0.4-1.73-0.94-2.42-1.63
		c-0.69-0.69-1.24-1.49-1.64-2.41c-0.4-0.92-0.6-1.91-0.6-2.96c0-0.7,0.09-1.37,0.27-2.02c0.18-0.65,0.44-1.25,0.77-1.81
		c0.33-0.56,0.73-1.07,1.2-1.54c0.46-0.46,0.98-0.86,1.54-1.19c0.56-0.33,1.17-0.58,1.82-0.76c0.65-0.18,1.32-0.27,2.02-0.27
		c0.55,0,1.1,0.06,1.63,0.19c0.53,0.12,1.05,0.31,1.54,0.54c0.49,0.24,0.96,0.52,1.41,0.85c0.45,0.33,0.87,0.71,1.26,1.12
		l-0.62,0.63c-0.19,0.2-0.4,0.35-0.63,0.45c-0.23,0.1-0.48,0.15-0.77,0.15c-0.39,0-0.74-0.11-1.06-0.33
		c-0.4-0.27-0.82-0.48-1.28-0.63c-0.46-0.15-0.95-0.23-1.47-0.23c-0.67,0-1.3,0.13-1.89,0.38c-0.6,0.26-1.12,0.6-1.56,1.04
		c-0.44,0.44-0.8,0.96-1.05,1.54c-0.26,0.59-0.39,1.22-0.39,1.89c0,0.69,0.14,1.33,0.41,1.92c0.27,0.59,0.63,1.11,1.09,1.55
		s0.99,0.78,1.6,1.03c0.61,0.25,1.24,0.37,1.91,0.37c0.33-0.01,0.66-0.03,0.99-0.08c0.28-0.04,0.59-0.11,0.91-0.2
		c0.33-0.09,0.62-0.22,0.89-0.38v-2.1c-0.29-0.01-0.58-0.01-0.86-0.02c-0.28,0-0.53-0.06-0.75-0.16c-0.22-0.1-0.39-0.28-0.53-0.52
		c-0.13-0.25-0.2-0.61-0.2-1.1V22H145.15z"/>
	<path class="st0" d="M152.28,29.97h-2.73v-14.9h2.73V29.97z"/>
	<path class="st0" d="M159.5,18.82v11.15h-2.72v-14.9h2.4c0.33,0,0.63,0.05,0.88,0.15c0.25,0.1,0.45,0.25,0.6,0.45
		c1.04,1.48,6.62,9.37,6.62,9.37v-9.96H170v14.9h-2.53L159.5,18.82z"/>
	<path class="st0" d="M177.24,29.97h-2.73v-14.9h2.73V29.97z"/>
	<path class="st0" d="M188.5,15.07h-2.46l-6.51,14.9h1.69c0.19,0,0.37-0.03,0.56-0.08c0.18-0.06,0.36-0.13,0.52-0.23
		c0.16-0.1,0.3-0.22,0.43-0.36c0.13-0.14,0.22-0.29,0.29-0.46l0.87-2.02h0l1.57-3.63h0.01l1.79-4.16l2.18,5.05h-1.24
		c-0.93,0-1.76,0.55-2.13,1.4l-0.58,1.34h5.15l0.88,2.02c0.16,0.35,0.4,0.63,0.72,0.83c0.32,0.2,0.67,0.3,1.06,0.3h1.69L188.5,15.07
		z"/>
	<path class="st0" d="M121.75,29.97h-2.72v-14.9h5.59c0.72,0,1.37,0.14,1.96,0.41c0.59,0.27,1.09,0.63,1.5,1.08
		c0.42,0.45,0.74,0.95,0.97,1.52c0.23,0.57,0.34,1.15,0.34,1.76c0,0.44-0.06,0.86-0.18,1.28c-0.12,0.42-0.29,0.81-0.52,1.17
		c-0.23,0.37-0.51,0.71-0.84,1.01c-0.33,0.31-0.71,0.57-1.14,0.79c0.73,0.99,1.45,1.97,2.17,2.95c0.72,0.97,1.45,1.95,2.18,2.94
		h-2.13c-0.15,0-0.32-0.03-0.51-0.09c-0.19-0.06-0.4-0.16-0.61-0.3c-0.21-0.14-0.43-0.31-0.66-0.52c-0.23-0.21-0.45-0.48-0.66-0.79
		l-2.71-3.66h-2.04V29.97z M124.7,21.87c0.26,0,0.51-0.06,0.75-0.17c0.24-0.11,0.45-0.26,0.62-0.45c0.18-0.19,0.32-0.4,0.42-0.65
		c0.1-0.25,0.16-0.5,0.16-0.76c0-0.27-0.05-0.53-0.16-0.77c-0.1-0.25-0.24-0.46-0.42-0.65c-0.18-0.19-0.38-0.34-0.62-0.45
		c-0.24-0.11-0.49-0.17-0.75-0.17h-2.95v4.06H124.7z"/>
</g>
<g>
	<path class="st0" d="M96.02,36.32v-2.63h11.5v2.63h-4.38V48.6h-2.73V36.32H96.02z"/>
	<path class="st0" d="M119.37,48.6h-9.56V33.7h9.56v2.61h-6.84v3.47h5.55v2.61h-5.55v3.6h6.84V48.6z"/>
	<path class="st0" d="M123.9,41.14c0,0.67,0.13,1.3,0.39,1.9c0.26,0.59,0.61,1.11,1.06,1.55c0.45,0.44,0.97,0.79,1.56,1.04
		c0.59,0.26,1.22,0.38,1.9,0.38c0.52,0,1.01-0.08,1.47-0.23c0.46-0.16,0.89-0.37,1.28-0.64c0.15-0.1,0.32-0.17,0.49-0.23
		c0.18-0.06,0.36-0.08,0.56-0.08c0.31,0,0.58,0.05,0.8,0.15c0.22,0.1,0.42,0.24,0.61,0.42l0.63,0.63c-0.39,0.42-0.81,0.79-1.26,1.12
		c-0.45,0.33-0.92,0.62-1.42,0.85c-0.5,0.24-1.01,0.42-1.54,0.54c-0.53,0.12-1.07,0.19-1.63,0.19c-1.05,0-2.04-0.2-2.97-0.6
		c-0.93-0.4-1.73-0.94-2.43-1.63c-0.69-0.69-1.24-1.49-1.64-2.41c-0.4-0.92-0.6-1.91-0.6-2.96c0-0.7,0.09-1.37,0.27-2.02
		c0.18-0.65,0.44-1.25,0.77-1.81c0.33-0.56,0.73-1.07,1.2-1.54c0.46-0.46,0.98-0.86,1.54-1.19c0.57-0.33,1.17-0.58,1.82-0.76
		c0.65-0.18,1.33-0.27,2.03-0.27c0.55,0,1.1,0.06,1.63,0.19c0.53,0.12,1.04,0.31,1.54,0.54c0.5,0.24,0.97,0.52,1.42,0.85
		c0.45,0.33,0.87,0.71,1.26,1.12l-0.63,0.63c-0.18,0.18-0.39,0.32-0.62,0.43s-0.49,0.16-0.78,0.16c-0.38,0-0.73-0.11-1.05-0.33
		c-0.4-0.27-0.83-0.48-1.29-0.63c-0.46-0.15-0.95-0.23-1.46-0.23c-0.67,0-1.31,0.13-1.9,0.38c-0.59,0.26-1.11,0.6-1.56,1.04
		c-0.45,0.44-0.8,0.96-1.06,1.54C124.03,39.84,123.9,40.47,123.9,41.14z"/>
	<path class="st0" d="M150.42,48.6h-2.73v-6.18h-7.32v6.18h-2.72V33.7h2.72v6.11h7.32V33.7h2.73V48.6z"/>
</g>
<g>
	<path class="st0" d="M153.48,46.21c0.7,0,1.26,0.57,1.26,1.26c0,0.7-0.57,1.26-1.26,1.26c-0.7,0-1.26-0.56-1.26-1.26
		C152.22,46.78,152.78,46.21,153.48,46.21z M153.48,48.63c0.63,0,1.15-0.51,1.15-1.15c0-0.63-0.52-1.15-1.15-1.15
		c-0.64,0-1.15,0.52-1.15,1.15C152.34,48.11,152.85,48.63,153.48,48.63z M153.67,47.6l0.34,0.48c0.01,0.03,0,0.04-0.03,0.04h-0.12
		c-0.02,0-0.04-0.01-0.06-0.03l-0.33-0.47h-0.24v0.47c0,0.02-0.01,0.03-0.03,0.03h-0.12c-0.03,0-0.03-0.01-0.03-0.03v-1.21
		c0-0.02,0.01-0.03,0.03-0.03h0.44c0.21,0,0.44,0.08,0.44,0.38C153.95,47.44,153.81,47.56,153.67,47.6z M153.51,47.45
		c0.17,0,0.26-0.08,0.26-0.23c0-0.16-0.1-0.22-0.27-0.22h-0.27v0.45H153.51z"/>
</g>
</svg>
